<svg version="1.1" id="Layer_1" xmlns="http://www.w3.org/2000/svg" xmlns:xlink="http://www.w3.org/1999/xlink" x="0px" y="0px"
     width="612px" height="374px" viewBox="0 190.5 612 374" enable-background="new 0 190.5 612 374" xml:space="preserve">
<g id="Background" display="none">
    
        <linearGradient id="SVGID_1_" gradientUnits="userSpaceOnUse" x1="395.5547" y1="257.9751" x2="395.5547" y2="489.5126" gradientTransform="matrix(0.7727 0 0 -0.7727 0.1136 772.4313)">
        <stop  offset="0" style="stop-color:#FFFFFF"/>
        <stop  offset="1" style="stop-color:#6BA4C0"/>
    </linearGradient>
    <rect x="-0.232" y="159.545" display="inline" fill="url(#SVGID_1_)" width="612" height="472.832"/>
</g>
<g id="star_ornament">
    <g>
        <polygon fill="#F4F4F4" points="77.582,409.445 93.732,411.532 79.9,402.877 92.882,392.909 76.964,396.541 79.05,380.391 
            70.396,394.223 60.427,381.241 64.059,397.159 47.909,395.073 61.664,403.728 48.759,413.695 64.677,410.063 62.591,426.214 
            71.246,412.382 81.214,425.363       "/>
        <g>
            <polygon fill="#DBDADA" points="71.941,391.673 71.941,286.659 69.623,286.659 69.623,393.218 70.396,394.223          "/>
            <polygon fill="#DBDADA" points="79.05,380.391 70.396,394.223 72.868,397.468             "/>
            <polygon fill="#DBDADA" points="68.154,397.7 60.427,381.241 64.059,397.159          "/>
            <polygon fill="#DBDADA" points="93.732,411.532 70.782,403.341 48.759,413.695 64.677,410.063 62.591,426.214 68.695,409.137 
                81.214,425.363 73.409,408.904           "/>
            <polygon fill="#DBDADA" points="64.986,401.178 47.909,395.073 61.664,403.728            "/>
        </g>
    </g>
</g>
<g id="tree_ornaments">
    <g id="_x31_">
        <path id="red-ornament" fill="#368D42" d="M488.75,438.809h-2.55c-0.618,0-1.082-0.463-1.159-1.004h12.363L486.818,430h8.19l-7.727-5.718h5.563
            l-7.882-5.796l-0.464-2.782l2.396-2.317l-3.245-0.464l-0.928-1.854v-60.196h-1.082v60.196l-0.927,1.854l-3.246,0.464l2.396,2.317
            l-0.463,2.551l-8.191,6.027h5.563L469.045,430h8.191l-10.818,7.728h12.364c-0.078,0.541-0.541,1.004-1.159,1.004h-2.551
            c-1.236,0-2.24,1.005-2.24,2.318c0,1.236,1.004,2.241,2.24,2.241h13.601c1.236,0,2.241-1.005,2.241-2.318
            C490.991,439.813,489.986,438.809,488.75,438.809z M479.709,414.159l1.623-0.231l0.695-1.469l0.695,1.469l1.623,0.231
            l-1.159,1.159l0.309,1.623l-1.468-0.773l-1.469,0.773l0.31-1.623L479.709,414.159z M488.75,442.209h-13.6
            c-0.618,0-1.159-0.541-1.159-1.236c0-0.618,0.541-1.159,1.159-1.159h2.55c1.236,0,2.241-1.005,2.241-2.241v-0.927h-10.2
            l10.586-7.805h-8.19l7.727-5.718H474.3l7.496-5.486l7.495,5.486h-5.563l7.728,5.718h-8.191l10.586,7.805H483.65v0.927
            c0,1.236,1.004,2.241,2.24,2.241h2.551c0.618,0,1.158,0.541,1.158,1.236C489.909,441.745,489.368,442.209,488.75,442.209z"/>
    </g>
    <g id="_x32_">
        <path id="green-ornament" fill="#D95027" d="M103.159,370.809h-2.55c-0.463,0-0.772-0.309-0.927-0.695h12.673l-10.586-7.805h8.191l-7.727-5.718h5.563
            l-8.191-6.027l-0.463-2.627l2.55-2.473l-3.555-0.541l-0.85-1.7v-60.35h-1.468v60.35l-0.85,1.7l-3.555,0.541l2.55,2.473
            l-0.387,2.396L85,356.591h5.563l-7.727,5.718h8.191l-10.664,7.882h12.672c-0.154,0.386-0.541,0.695-0.927,0.695h-2.55
            c-1.313,0-2.473,1.082-2.473,2.473c0,1.313,1.082,2.473,2.473,2.473h13.6c1.313,0,2.473-1.082,2.473-2.473
            C105.632,371.891,104.55,370.809,103.159,370.809z M103.159,374.286h-13.6c-0.541,0-1.004-0.463-1.004-1.004
            s0.463-1.004,1.004-1.004h2.55c1.314,0,2.473-1.082,2.473-2.473v-1.082h-9.814l10.586-7.805h-8.191l7.728-5.718h-5.564l6.955-5.1
            l6.955,5.1h-5.563l7.727,5.718h-8.036l10.586,7.805h-9.814v1.082c0,1.313,1.082,2.473,2.473,2.473h2.55
            c0.541,0,1.004,0.463,1.004,1.004S103.7,374.286,103.159,374.286z M96.514,345.077l0.618,1.236l1.391,0.232l-1.005,1.004
            l0.232,1.391l-1.236-0.618l-1.236,0.618l0.232-1.391l-1.005-1.004l1.391-0.232L96.514,345.077z"/>
    </g>
</g>
<g id="Tite_and_logo">
    <g id="logo">
        <g>
            <g>
                <g>
                    <path fill="#D95027" d="M537.277,286.35c-2.087,2.086-2.782,5.718-2.009,10.741c1.545,10.354,1.236,11.9-2.782,14.682l0,0
                        c-0.928,0.618-1.082,1.545-1.082,2.164c0.077,1.236,0.928,2.473,1.7,2.936c1.391,0.773,2.55,0.618,3.245,0.309
                        c0.928-0.463,1.623-1.313,1.777-2.318c0.618-3.091,0-6.104-0.541-8.964l-0.618-3.477c-0.154-1.314,0.232-2.396,1.082-3.168
                        c1.236-1.082,3.168-1.313,4.405-1.082c1.391,0.309,2.781,3.014,3.863,4.945l0.695,1.313l4.327,8.191
                        c3.168,6.414,4.481,8.655,10.509,11.359l1.623,0.772c7.572,3.4,8.346,3.168,9.736,2.782c2.55-0.695,2.009-2.782,1.7-3.4
                        c-0.851-1.7-10.354-11.127-11.978-11.9l-0.077-0.077h-0.231c-0.077,0.077-0.155,0.232,1.545,1.932
                        c1.854,1.932,1.854,3.014,1.7,3.478c-0.154,0.386-0.464,0.695-1.005,0.85c-1.622,0.387-4.636-0.85-7.186-3.786
                        c-4.173-4.636-12.673-18.391-14.683-25.268c-0.54-2.009-0.386-3.478,0.541-3.787l1.469-0.231l0.154-0.078v-0.386
                        c-0.154-0.154-0.464-0.386-1.854-0.541C543.15,284.341,539.673,283.877,537.277,286.35z"/>
                </g>
                <g>
                    <path fill="#D95027" d="M567.954,334.955c-0.772-2.859-3.554-5.254-8.268-7.187c-9.736-3.941-10.896-4.945-11.282-9.813l0,0
                        c-0.077-1.159-0.772-1.7-1.313-2.009c-1.082-0.618-2.627-0.463-3.4,0c-1.391,0.85-1.776,1.932-1.854,2.627
                        c-0.077,1.004,0.31,2.086,1.082,2.782c2.396,2.086,5.255,3.091,7.959,4.018l3.246,1.236c1.236,0.541,1.932,1.391,2.163,2.55
                        c0.387,1.623-0.386,3.4-1.313,4.327c-0.928,1.082-4.019,0.927-6.182,0.85l-1.469-0.077l-9.272-0.387
                        c-7.109-0.463-9.736-0.463-15.068,3.323l-1.468,1.005c-6.8,4.791-6.955,5.563-7.341,6.955c-0.695,2.55,1.391,3.168,2.086,3.168
                        c1.854,0.077,14.837-3.323,16.305-4.327l0.077-0.078l0.077-0.231c-0.077-0.155-0.077-0.232-2.396,0.309
                        c-2.55,0.618-3.555,0.077-3.863-0.232c-0.31-0.309-0.387-0.773-0.154-1.313c0.541-1.546,3.014-3.555,6.877-4.328
                        c6.104-1.236,22.255-1.623,29.132,0.078c2.087,0.541,3.245,1.468,3.014,2.396l-0.541,1.391v0.155l0.31,0.154
                        c0.231,0,0.541-0.232,1.391-1.313C566.718,340.982,568.882,338.2,567.954,334.955z"/>
                </g>
                <g>
                    <path fill="#D95027" d="M512.241,337.118c2.937,0.695,6.336-0.618,10.2-3.864c8.036-6.723,9.504-7.264,13.986-5.254l0,0
                        c1.081,0.464,1.854,0.154,2.395-0.154c1.005-0.696,1.623-2.086,1.623-3.014c-0.077-1.623-0.772-2.473-1.468-2.937
                        c-0.851-0.541-2.01-0.695-2.937-0.309c-2.937,1.082-5.178,3.168-7.341,5.1l-2.628,2.318c-1.004,0.773-2.163,1.082-3.245,0.773
                        c-1.623-0.464-2.782-2.009-3.245-3.168c-0.464-1.314,1.082-3.941,2.24-5.873l0.773-1.236l4.791-7.959
                        c3.786-6.027,5.1-8.346,4.25-14.836l-0.155-1.777c-1.004-8.191-1.622-8.732-2.704-9.736c-1.932-1.854-3.4-0.232-3.786,0.309
                        c-1.005,1.623-4.096,14.682-3.941,16.382v0.077l0.154,0.232c0.155,0,0.232,0,0.851-2.318c0.695-2.55,1.545-3.168,2.086-3.245
                        c0.464-0.078,0.851,0.077,1.236,0.463c1.159,1.236,1.7,4.405,0.541,8.114c-1.854,5.95-9.118,20.4-13.909,25.577
                        c-1.468,1.545-2.781,2.086-3.555,1.468l-0.927-1.159l-0.154-0.077l-0.31,0.232c-0.077,0.232-0.077,0.618,0.464,1.854
                        C507.527,333.177,508.918,336.346,512.241,337.118z"/>
                </g>
            </g>
        </g>
    </g>
    <g id="HappyHolidays">
        <path fill="#114C7A" d="M288.227,323.441c-1.854,3.014,2.318,7.032,8.423,7.032c6.8,0.077,10.432-2.086,12.132-5.022
            c1.854-2.937-2.318-7.109-8.346-7.187C294.1,318.187,289.927,320.504,288.227,323.441z"/>
        <path fill="#114C7A" d="M436.127,366.327c-4.481-0.541-8.809-0.772-13.213-0.463c2.163-9.196,8.345-37.014,10.045-43.659
            l2.473-10.123c0,0-0.618-0.232-1.391-0.541c-4.791-1.468-12.363-0.927-16.073,8.113c-0.309,0.619-0.695,1.7-1.081,3.246
            c-2.551,9.427-4.791,26.196-10.818,35.7c-2.396,3.709-4.25,3.709-2.396-5.409c4.096-19.086,8.19-35.777,8.887-38.327
            c0,0-0.618-0.309-1.623-0.618c-4.791-1.623-14.141-1.159-17.077,12.132c-1.7,7.65-3.709,17.231-4.714,21.945
            c-0.464,2.164-0.695,4.095-0.772,5.873c-1.159,2.627-2.241,4.637-3.787,7.032c-2.24,3.709-4.095,3.709-2.163-5.409
            c3.94-18.932,8.19-35.777,8.731-38.25c0,0-0.541-0.232-1.545-0.618c-3.786-1.236-10.2-1.236-14.219,4.868
            c-6.413-5.023-23.336,0.231-28.822,24.495c-1.082,4.791-1.391,8.964-1.005,12.364c-1.313,3.091-2.55,5.332-4.327,8.037
            c-2.318,3.632-3.863,3.709-2.163-5.564c1.081-5.177,2.009-11.514,8.809-39.177l1.623-6.723c4.481-2.241,8.5-5.409,12.132-9.118
            c9.041-9.659,13.832-22.718,7.418-27.2c-5.718-4.018-22.95-2.473-33.536,31.064c-7.264-0.387-14.991-2.473-20.941-6.8
            c-0.154,0-0.464,0.387-1.082,0.696c-7.958,5.795-4.79,14.759,5.796,15.995c4.481,0.618,9.041,0.696,13.445,0.232
            c-0.077,0.077-0.077,0.309-0.077,0.386l-1.468,6.104c-6.878-3.941-22.564,1.7-27.896,24.959
            c-1.236,5.409-1.468,9.968-1.004,13.677c-1.159,2.473-2.241,4.481-3.709,6.8c-2.164,3.4-3.941,2.627-2.164-5.563
            c2.55-12.055,7.032-30.368,7.264-31.295c0,0-0.773-0.387-1.777-0.85c-4.096-1.623-13.909-0.541-16.614,11.591
            c-1.004,4.636-2.937,13.213-3.477,15.841c-0.464,2.086-0.696,3.941-0.773,5.641c-1.236,2.782-2.318,4.868-3.941,7.264
            c-2.396,3.709-4.018,3.709-2.318-5.409c1.082-5.177,2.009-11.514,8.809-39.332l1.623-6.723c4.482-2.241,8.5-5.254,12.132-9.118
            c9.041-9.659,13.832-22.718,7.418-27.123c-5.718-4.018-22.95-2.318-33.536,31.063c-7.264-0.386-14.836-2.473-20.941-6.8
            c0,0-0.464,0.231-1.082,0.695c-7.959,5.795-4.791,14.759,5.795,15.996c4.637,0.618,9.118,0.695,13.523,0.077
            c-0.077,0.232-0.077,0.309-0.077,0.386c-2.009,8.577-5.177,21.946-7.187,31.45c-0.773,0.541-1.545,1.082-2.318,1.468
            c0.309-0.85,0.464-1.777,0.773-2.705c4.25-18.545-4.096-32.609-15.223-28.978c-4.405,1.468-7.496,4.636-9.505,8.423
            c-7.341,4.791-13.059,13.291-15.454,23.877c-1.237,5.254-1.391,9.504-0.85,12.827c-1.236,2.859-2.396,4.945-4.019,7.496
            c-2.395,3.632-4.018,3.632-2.086-5.564c1.004-5.332,1.313-6.568,3.091-14.295c6.027-24.65-6.259-26.659-15.223-18.623
            c-1.932,1.777-3.478,3.863-4.791,6.182c0.927-4.018,1.7-7.341,2.318-9.504l1.777-6.8c4.328-2.241,8.423-5.254,11.9-9.041
            c9.119-9.659,13.987-22.718,7.573-27.2c-5.718-4.018-22.95-2.473-33.536,31.063c-7.264-0.386-14.914-2.473-20.941-6.8
            c-0.155,0-0.464,0.386-1.082,0.695c-8.113,5.795-4.791,14.759,5.795,15.996c4.482,0.618,9.041,0.695,13.446,0.232
            c-0.078,0.077-0.078,0.309-0.078,0.386c-2.859,12.596-6.027,26.891-8.422,38.945c-3.014,14.373,4.868,15.223,10.973,14.991
            c0.772,0,1.082,0,1.082,0l4.482-21.096c0.309-0.618,0.618-1.777,0.927-3.323c2.009-10.2,4.714-18.545,9.427-23.027
            c4.328-4.172,3.091,0.232-1.159,18.391c-0.387,1.545-1.777,7.727-2.086,9.272c-4.482,21.482,11.359,21.173,17.927,10.509
            c1.391-2.318,2.396-4.095,3.323-5.95c2.705,8.19,10.277,9.813,14.914,9.195c6.955-1.082,18.545-9.195,23.8-23.027
            c0.927-0.386,1.777-0.927,2.705-1.468c-0.155,0.695-0.309,1.314-0.386,2.009c-4.637,21.404,11.591,22.177,18.159,11.591
            c1.082-1.854,1.932-3.323,2.704-4.791c1.546,11.823,13.446,10.741,18.777,2.009c1.236-1.932,2.086-3.478,2.937-5.023
            c2.705,10.354,11.822,11.978,17.231,5.177c1.469-1.777,2.705-4.25,3.787-7.264c1.545,11.668,13.445,10.586,18.854,1.855
            c1.391-2.396,2.473-4.25,3.399-6.105c2.705,11.205,12.904,13.059,18.469,6.105c1.236-1.468,2.009-3.478,2.704-5.873
            c2.318,10.123,13.368,8.886,18.623,0.464c1.082-1.7,1.932-3.091,2.627-4.482c1.7,11.591,13.601,10.509,18.854,1.777
            c1.082-1.854,2.009-3.787,2.859-5.641c-0.772,3.787-1.777,7.959-2.937,12.287l-0.85,3.091c-5.332,2.164-10.123,5.409-14.064,9.582
            c-9.04,9.659-13.831,22.719-7.418,27.2c7.032,4.945,25.423,2.473,35.313-30.368c7.342,0.695,14.604,2.782,20.478,6.877
            c0,0.077,0.464-0.232,1.082-0.618C449.882,376.527,446.637,367.563,436.127,366.327z M364.728,281.096
            c5.795,3.322,1.468,15.763-5.332,22.641c-1.777,1.854-4.637,3.4-7.959,4.405C358.546,281.636,361.25,279.164,364.728,281.096z
             M300.359,289.209c5.795,3.246,1.468,15.764-5.332,22.641c-1.777,1.854-4.636,3.4-7.959,4.404
            C294.177,289.827,296.882,287.277,300.359,289.209z M214.896,299.795c5.795,3.323,1.468,15.764-5.332,22.641
            c-1.777,1.854-4.559,3.245-7.727,4.404C209.023,300.414,211.418,297.941,214.896,299.795z M243.795,332.404
            c1.7-0.541,2.859,0.078,3.4,1.391c-2.782,0.232-5.718,1.082-8.268,2.318C240.241,334.336,241.864,333.023,243.795,332.404z
             M235.295,384.409c-4.327,0.772-4.095-4.636-0.232-23.646l0.232-1.468c0,0.077,0.155,0.155,0.232,0.232
            c2.086,2.55,4.559,4.327,7.341,5.409C240.241,376.063,238.85,383.868,235.295,384.409z M243.563,362.386l-0.231,0.618
            c-2.009-0.927-3.864-2.55-5.564-4.636c-0.695-0.85-1.236-1.854-1.7-2.859c2.627-12.364,5.022-19.241,11.591-19.937
            C248.664,340.904,246.268,351.723,243.563,362.386z M325.086,353.732c-0.077,0.541-0.309,1.159-0.309,1.854
            c0,0.077-0.077,0.232-0.077,0.232c-1.777,8.113-3.786,13.832-5.641,16.227c-3.787,4.714-4.482-3.246,0-21.791
            c4.636-19.55,6.877-26.427,11.745-21.404L325.086,353.732z M372.377,329.159l-4.018,19.241c-0.232,0.541-0.31,1.159-0.464,1.854
            c-1.623,8.191-2.55,13.755-4.56,16.305c-3.632,4.636-5.563-3.091-1.158-21.713c4.79-19.473,7.031-26.35,11.899-21.328
            c0,0.078,0.154,0.155,0.154,0.309C373.459,325.295,372.841,327.073,372.377,329.159z M389.377,404.191
            c-5.795-3.169-1.391-15.687,5.409-22.564c2.01-2.086,5.486-3.709,9.813-4.714C397.027,403.728,394.014,406.973,389.377,404.191z"
            />
        <path fill="#114C7A" d="M466.032,333.873c1.932-0.772,3.863-1.313,5.718-1.7c2.937-0.541,5.022-1.236,5.641-1.623
            c1.854-1.159,0.618-1.313-4.095-0.309c-2.628,0.541-5.409,1.314-7.96,2.164c-3.399-6.877-9.195-12.596-15.608-17.309
            c-0.232-0.078-0.541-0.31-0.773-0.696c0.387-1.082,0.773-2.086,1.082-3.168c1.313-3.787,2.087-6.259,2.164-6.8
            c0,0-11.128-0.695-14.373,4.096c-2.086,2.937-3.168,7.496,2.009,12.364l2.396,2.627c-1.777,5.332-3.786,10.896-5.486,15.687
            c-0.463,1.391-1.081,2.859-0.541,3.941c0.696,1.004,2.318-3.091,2.859-4.327c1.391-3.555,3.4-8.037,5.332-12.828
            c2.782,3.555,5.486,8.037,7.109,12.982c-4.327,2.627-7.882,5.486-10.123,7.959c-5.718,6.336-7.418,15.841,0.464,18.391
            c9.35,3.168,27.973-6.336,26.659-22.023C468.195,340.132,467.269,336.809,466.032,333.873z M443.236,362.773
            c-4.791-1.777-4.637-8.809,0.31-14.373c1.932-2.164,5.022-4.868,8.731-7.418c0.541,2.318,1.005,4.713,0.927,7.109
            C453.05,358.986,448.182,364.55,443.236,362.773z"/>
        <path fill="#114C7A" d="M487.359,286.195c-0.618,0.155-1.005,0.232-1.005,0.232s0,1.932-0.85,7.109l-7.109,47.214
            c0,0,0.387,0.154,1.005,0.386c2.704,1.391,8.577-0.309,10.663-6.182c4.096-11.746,8.114-24.882,10.741-35.004
            C503.896,288.05,496.555,283.955,487.359,286.195z"/>
        <path fill="#114C7A" d="M483.418,344.614c-6.413-0.078-10.509,2.241-12.209,5.177c-1.854,3.014,2.318,7.032,8.423,7.032
            c6.8,0.077,10.432-2.086,12.132-5.023C493.618,348.864,489.445,344.691,483.418,344.614z"/>
        <path fill="#114C7A" d="M168.764,250.187c1.777-6.8,4.482-11.591,6.104-13.909c3.477-4.327,4.096,2.164,1.004,17.927
            c-1.7,2.086-3.245,4.095-4.481,6.259c-5.409,8.577-10.741,20.322-5.641,23.646c5.873,3.786,20.632-5.873,25.114-27.586
            c1.004-5.332,1.236-9.968,0.695-13.6c1.777-1.313,3.323-2.396,4.713-3.323c-0.309,1.7-0.695,3.554-1.159,5.641
            c-1.082,4.868-5.023,22.409-7.496,34.386c-2.859,14.527,2.396,15.532,8.5,15.377l1.236-0.154l10.664-47.832
            c0.077-0.618,0.155-1.236,0.309-1.854c1.777-6.8,4.482-11.591,6.104-13.909c3.478-4.327,4.096,2.164,1.005,17.927
            c-1.7,2.086-3.246,4.096-4.482,6.259c-5.409,8.577-10.741,20.323-5.641,23.646c5.873,3.786,20.632-5.873,25.114-27.586
            c1.004-5.332,1.236-9.968,0.695-13.6c1.932-1.391,3.478-2.473,4.946-3.477c-1.623,7.418-3.555,16.305-4.482,20.863
            c-4.636,21.56,11.823,22.255,18.313,11.514c1.082-1.854,2.009-3.786,2.859-5.641c-0.773,3.786-1.777,7.959-2.937,12.286
            l-0.85,3.091c-5.332,2.164-10.123,5.409-14.063,9.582c-9.041,9.659-13.832,22.718-7.418,27.2
            c7.032,4.945,25.423,2.473,35.314-30.368c7.341,0.695,14.604,2.782,20.477,6.877c0,0.077,0.464-0.231,1.082-0.618
            c7.959-5.795,4.791-14.759-5.795-15.995c-4.482-0.541-8.809-0.773-13.214-0.464c2.164-9.195,8.346-37.014,10.045-43.659
            l2.473-10.123c0,0-0.618-0.232-1.391-0.541c-4.791-1.468-12.364-0.927-16.073,8.114c-0.309,0.618-0.695,1.7-1.082,3.245
            c-2.55,9.428-4.791,26.196-10.818,35.7c-2.396,3.709-4.25,3.709-2.396-5.409c4.095-19.086,8.191-35.777,8.886-38.327
            c0,0-0.618-0.309-1.623-0.618c-4.328-1.468-12.441-1.236-16.073,8.732c-2.396,1.623-3.091,2.705-6.568,5.332
            c-2.705-10.586-11.823-12.286-17.309-5.486c-1.004,1.236-2.009,2.627-2.937,4.482c0.309-8.191-5.254-9.968-11.127-8.5
            c-0.618,0.155-0.85,0.232-0.85,0.232s-0.077,2.473-1.313,9.427c-1.932,1.391-2.782,2.473-5.95,4.868
            c-2.705-10.586-11.823-12.287-17.309-5.486c-1.004,1.236-2.009,2.627-2.937,4.482c0.309-8.191-5.254-9.968-11.127-8.5
            c-0.618,0.154-0.85,0.231-0.85,0.231s-0.077,4.637-3.323,19.241c-0.773,3.477-3.014,13.368-5.1,23.104
            c-1.004,2.086-1.932,3.863-3.245,5.795c-2.241,3.709-4.096,3.709-2.164-5.409c3.941-18.932,8.191-35.777,8.732-38.25
            c0,0-0.541-0.232-1.545-0.618c-3.786-1.236-10.2-1.236-14.218,4.868c-6.414-5.023-23.336,0.232-28.823,24.496
            c-1.236,5.254-1.391,9.659-0.927,13.291c-1.159,2.627-2.241,4.713-3.786,7.109c-2.396,3.632-4.018,3.632-2.086-5.563
            c1.004-5.332,1.313-6.568,3.091-14.295c6.027-24.65-6.259-26.659-15.223-18.623c-1.932,1.777-3.478,3.864-4.791,6.182
            c0.927-4.019,1.7-7.341,2.318-9.505l1.777-6.8c4.327-2.241,8.422-5.254,11.9-9.041c9.118-9.659,13.986-22.718,7.573-27.2
            c-5.718-4.019-22.95-2.473-33.537,31.063c-7.264-0.387-14.914-2.473-20.941-6.8c-0.154,0-0.463,0.387-1.082,0.696
            c-8.114,5.795-4.791,14.759,5.795,15.995c4.482,0.618,9.041,0.696,13.445,0.232c-0.077,0.077-0.077,0.309-0.077,0.386
            c-2.859,12.596-6.027,26.891-8.423,38.946c-3.014,14.373,4.868,15.223,10.973,14.991c0.773,0,1.082,0,1.082,0l4.482-21.095
            c0.309-0.618,0.618-1.777,0.927-3.323c2.009-10.2,4.713-18.545,9.427-23.027c4.327-4.173,3.091,0.232-1.159,18.391
            c-0.386,1.546-1.777,7.728-2.086,9.273c-4.482,21.482,11.359,21.173,17.927,10.509c1.236-2.086,2.164-3.787,3.091-5.409
            c2.937,10.664,12.828,12.286,18.314,5.486c1.236-1.468,2.009-3.478,2.705-5.873c2.318,10.123,13.368,8.887,18.623,0.464
            c0.232-0.309,0.386-0.618,0.541-0.927c-0.387,1.777-0.696,3.477-1.082,5.1c-2.859,14.527,2.396,15.532,8.5,15.377l1.236-0.154
            l10.664-47.832C168.532,251.423,168.609,250.805,168.764,250.187z M169.15,281.173c-2.705-1.7-1.159-10.818,4.791-20.323
            c0.232-0.464,0.541-0.85,0.85-1.314C171.932,273.677,172.396,283.182,169.15,281.173z M208.636,276.228
            c-2.705-1.7-1.159-10.818,4.791-20.323c0.232-0.463,0.541-0.85,0.85-1.313C211.496,268.732,211.882,278.236,208.636,276.228z
             M231.741,311.154c-5.795-3.168-1.391-15.686,5.409-22.563c2.009-2.086,5.486-3.709,9.814-4.713
            C239.391,310.691,236.377,313.859,231.741,311.154z M104.705,201.736c5.795,3.323,1.468,15.764-5.332,22.641
            c-1.777,1.854-4.559,3.245-7.727,4.404C98.909,202.354,101.227,199.805,104.705,201.736z M134.996,246.941l-4.019,19.241
            c-0.231,0.541-0.309,1.159-0.463,1.854c-1.623,8.191-2.55,13.755-4.559,16.305c-3.632,4.637-5.563-3.091-1.159-21.713
            c4.791-19.473,7.032-26.35,11.9-21.328c0,0.078,0.155,0.155,0.155,0.31C136.077,243.077,135.459,244.854,134.996,246.941z"/>
    </g>
    <g id="from" display="none">
        <path display="inline" fill="#FFFFFF" d="M460.623,376.527c-0.077,1.159-0.077,2.318-0.155,3.4
            c1.854-0.232,3.709-0.541,5.486-0.85c0,0.85-0.077,1.623-0.077,2.473c-1.854,0.309-3.709,0.541-5.486,0.85
            c-0.077,1.854-0.154,3.787-0.231,5.641c-0.928,0.154-1.777,0.231-2.705,0.386c0.155-4.636,0.387-9.35,0.541-13.986
            c3.091-0.386,6.104-0.85,9.196-1.313c0,0.85-0.078,1.623-0.078,2.473C464.95,375.832,462.786,376.218,460.623,376.527z"/>
        <path display="inline" fill="#FFFFFF" d="M474.068,378.459c-0.154-0.154-0.387-0.309-0.541-0.386s-0.464-0.077-0.772,0
            c-0.232,0-0.387,0.077-0.618,0.232c-0.232,0.077-0.387,0.231-0.541,0.463c-0.155,0.155-0.31,0.386-0.387,0.618
            s-0.154,0.541-0.154,0.85c-0.077,2.086-0.154,4.096-0.232,6.182c-0.85,0.155-1.699,0.309-2.55,0.387
            c0.155-3.4,0.232-6.8,0.387-10.2c0.85-0.154,1.623-0.232,2.473-0.386c0,0.309,0,0.618,0,1.004
            c0.231-0.309,0.618-0.618,1.082-0.927s1.004-0.463,1.545-0.541c0.464-0.077,0.928-0.077,1.313,0
            c0.387,0.078,0.696,0.232,1.082,0.541C475.459,376.991,474.764,377.764,474.068,378.459z"/>
        <path display="inline" fill="#FFFFFF" d="M484.964,378.923c0,0.927-0.155,1.7-0.31,2.396c-0.154,0.618-0.541,1.236-1.004,1.854
            c-0.31,0.386-0.773,0.772-1.314,1.082s-1.159,0.541-1.932,0.696c-0.772,0.154-1.391,0.154-1.932-0.078
            c-0.541-0.154-0.928-0.386-1.236-0.695c-0.464-0.386-0.695-0.927-0.85-1.468c-0.155-0.618-0.155-1.391-0.155-2.318
            s0.155-1.7,0.31-2.318s0.541-1.236,1.005-1.777c0.309-0.386,0.772-0.772,1.313-1.082s1.159-0.541,1.932-0.696
            c0.772-0.154,1.391-0.154,1.932,0c0.541,0.155,0.928,0.387,1.236,0.696c0.464,0.386,0.695,0.927,0.85,1.468
            C484.964,377.223,485.041,377.996,484.964,378.923z M482.414,379.386c0-0.541,0-1.004-0.078-1.391
            c-0.077-0.386-0.231-0.696-0.463-0.927c-0.31-0.232-0.695-0.309-1.159-0.232s-0.851,0.309-1.159,0.618
            c-0.31,0.309-0.464,0.695-0.541,1.082c-0.077,0.464-0.154,0.928-0.154,1.468c0,0.541,0,1.005,0.077,1.468
            c0.077,0.386,0.231,0.773,0.464,0.927c0.309,0.232,0.695,0.309,1.158,0.232c0.464-0.077,0.928-0.309,1.236-0.695
            c0.31-0.309,0.464-0.696,0.541-1.159C482.414,380.391,482.414,379.927,482.414,379.386z"/>
        <path display="inline" fill="#FFFFFF" d="M499.104,381.396c0.077-2.086,0.154-4.096,0.231-6.182c0-0.387,0-0.618-0.077-0.85
            s-0.231-0.386-0.386-0.464c-0.155-0.077-0.31-0.154-0.541-0.232c-0.232,0-0.387,0-0.618,0c-0.232,0-0.387,0.078-0.618,0.232
            c-0.232,0.078-0.387,0.232-0.541,0.386c-0.154,0.155-0.31,0.387-0.387,0.618c-0.077,0.232-0.154,0.541-0.154,0.85
            c-0.077,2.086-0.154,4.173-0.231,6.259c-0.851,0.154-1.7,0.309-2.551,0.464c0.077-2.086,0.155-4.096,0.232-6.182
            c0-0.386,0-0.618-0.077-0.85c-0.077-0.231-0.232-0.386-0.387-0.463c-0.154-0.078-0.309-0.155-0.541-0.232
            c-0.231,0-0.387,0-0.618,0s-0.386,0.077-0.618,0.232c-0.231,0.077-0.387,0.232-0.541,0.386c-0.154,0.155-0.309,0.386-0.386,0.618
            c-0.078,0.232-0.155,0.541-0.155,0.927c-0.077,2.086-0.154,4.096-0.231,6.182c-0.85,0.154-1.7,0.309-2.55,0.463
            c0.154-3.4,0.231-6.8,0.386-10.2c0.851-0.154,1.623-0.309,2.473-0.463c0,0.309,0,0.618,0,0.927
            c0.387-0.386,0.773-0.773,1.237-1.004c0.463-0.232,0.927-0.464,1.391-0.541c0.541-0.077,1.082-0.077,1.545,0
            c0.464,0.154,0.851,0.386,1.159,0.772c0.464-0.541,0.928-0.927,1.392-1.236c0.463-0.309,1.081-0.463,1.699-0.618
            c0.541-0.077,1.005-0.077,1.392,0c0.463,0.078,0.772,0.232,1.081,0.464c0.387,0.309,0.696,0.695,0.851,1.159
            c0.154,0.463,0.231,0.927,0.154,1.545c-0.077,2.164-0.154,4.327-0.231,6.568C500.805,381.086,499.954,381.241,499.104,381.396z"/>
        <path display="inline" fill="#FFFFFF" d="M519.118,373.282c-0.154,0.696-0.387,1.391-0.695,2.009
            c-0.31,0.618-0.695,1.159-1.159,1.623c-0.464,0.464-1.005,0.85-1.546,1.159c-0.618,0.309-1.236,0.541-1.854,0.695
            c-1.468,0.309-2.704,0-3.709-0.772c-0.541-0.464-0.927-1.082-1.082-1.854c-0.154-0.773-0.154-1.932-0.077-3.4
            c0.077-1.545,0.155-2.705,0.387-3.554c0.154-0.85,0.618-1.623,1.236-2.318c1.082-1.236,2.318-2.009,3.863-2.241
            c1.313-0.232,2.473-0.078,3.4,0.463c0.927,0.618,1.468,1.545,1.623,2.937c-0.928,0.154-1.854,0.386-2.782,0.541
            c-0.154-0.541-0.387-1.005-0.695-1.314c-0.387-0.309-0.85-0.386-1.546-0.231c-0.772,0.154-1.313,0.541-1.777,1.082
            c-0.154,0.155-0.309,0.386-0.386,0.541c-0.077,0.232-0.154,0.464-0.232,0.695c-0.077,0.309-0.077,0.618-0.154,1.082
            c0,0.463-0.077,1.004-0.077,1.7c0,0.696,0,1.237,0,1.7c0,0.464,0,0.773,0.077,1.082c0,0.309,0.077,0.463,0.154,0.618
            c0.078,0.154,0.232,0.309,0.31,0.463c0.387,0.386,0.927,0.541,1.7,0.386c0.695-0.154,1.236-0.386,1.622-0.85
            c0.387-0.464,0.696-0.927,0.851-1.623C517.341,373.668,518.269,373.437,519.118,373.282z"/>
        <path display="inline" fill="#FFFFFF" d="M524.063,376.604c-0.541,0.077-1.005,0.077-1.313,0
            c-0.387-0.077-0.695-0.232-0.928-0.463c-0.231-0.232-0.386-0.541-0.463-0.85s-0.155-0.695-0.155-1.005
            c0.155-3.709,0.31-7.341,0.387-11.05c0.85-0.154,1.7-0.309,2.55-0.463c-0.154,3.632-0.309,7.263-0.386,10.895
            c0,0.31,0.077,0.541,0.154,0.618c0.154,0.155,0.386,0.155,0.695,0.078c0.31-0.078,0.618-0.155,1.005-0.155
            c0,0.695-0.077,1.468-0.077,2.164C524.991,376.45,524.527,376.527,524.063,376.604z"/>
        <path display="inline" fill="#FFFFFF" d="M527.928,363.932c0-0.695,0.077-1.391,0.077-2.086c0.85-0.155,1.777-0.31,2.627-0.541
            c0,0.695-0.077,1.391-0.077,2.086C529.704,363.623,528.777,363.777,527.928,363.932z M527.541,375.909
            c0.154-3.4,0.231-6.8,0.387-10.2c0.85-0.154,1.699-0.309,2.55-0.463c-0.155,3.4-0.232,6.8-0.387,10.2
            C529.241,375.6,528.391,375.754,527.541,375.909z"/>
        <path display="inline" fill="#FFFFFF" d="M540.445,372.2c-0.464,0.541-1.004,1.004-1.545,1.313s-1.159,0.541-1.855,0.695
            c-0.54,0.077-1.004,0.155-1.545,0.077c-0.541-0.077-1.005-0.231-1.468-0.541c-0.387-0.309-0.773-0.773-1.005-1.391
            c-0.232-0.618-0.387-1.468-0.31-2.473c0-1.004,0.232-1.932,0.541-2.627c0.31-0.695,0.695-1.313,1.159-1.777
            c0.464-0.464,0.928-0.85,1.469-1.082s1.081-0.464,1.622-0.541c0.695-0.154,1.313-0.154,1.854,0
            c0.541,0.155,1.005,0.386,1.469,0.773c-0.618,0.695-1.159,1.391-1.777,2.086c-0.232-0.232-0.464-0.387-0.772-0.464
            c-0.232-0.077-0.541-0.077-0.851,0c-0.618,0.077-1.082,0.464-1.468,0.927c-0.232,0.309-0.387,0.618-0.464,1.004
            c-0.077,0.387-0.154,0.85-0.154,1.391c-0.077,1.082,0.154,1.777,0.463,2.164c0.387,0.386,0.851,0.541,1.392,0.386
            c0.309-0.077,0.618-0.154,0.927-0.386c0.232-0.154,0.541-0.463,0.773-0.772C539.286,371.273,539.827,371.736,540.445,372.2z"/>
        <path display="inline" fill="#FFFFFF" d="M548.481,371.968c-0.772-1.236-1.545-2.55-2.317-3.787
            c-0.387,0.464-0.773,0.928-1.159,1.391c0,1.004-0.077,2.009-0.077,3.014c-0.851,0.154-1.7,0.309-2.551,0.463
            c0.155-4.636,0.31-9.35,0.541-13.986c0.851-0.154,1.7-0.309,2.55-0.463c-0.077,2.627-0.231,5.254-0.309,7.959
            c1.159-1.623,2.396-3.168,3.555-4.791c1.004-0.154,2.086-0.386,3.091-0.541c-1.236,1.623-2.55,3.168-3.786,4.791
            c1.236,1.777,2.473,3.632,3.709,5.409C550.568,371.582,549.563,371.813,548.481,371.968z"/>
        <path display="inline" fill="#FFFFFF" d="M566.1,364.937c0,0.695-0.154,1.313-0.386,1.854c-0.232,0.541-0.618,1.082-1.005,1.468
            c-0.387,0.386-0.927,0.772-1.468,1.004s-1.082,0.463-1.7,0.541c-0.541,0.077-1.159,0.077-1.623,0.077
            c-0.541-0.077-1.004-0.232-1.391-0.464c-0.387-0.231-0.695-0.618-0.928-1.082c-0.231-0.464-0.309-1.082-0.309-1.777
            c0.85-0.155,1.7-0.309,2.55-0.463c0,0.309,0.077,0.541,0.154,0.772s0.232,0.386,0.387,0.464c0.154,0.154,0.387,0.231,0.618,0.231
            s0.464,0,0.695,0c0.541-0.077,1.005-0.309,1.391-0.695c0.387-0.386,0.541-0.927,0.618-1.545c0-0.618-0.154-1.004-0.463-1.313
            c-0.31-0.309-0.773-0.387-1.469-0.309c-0.154,0-0.231,0.077-0.386,0.077c0-0.773,0.077-1.468,0.077-2.241
            c0.154,0,0.231-0.077,0.386-0.077c0.618-0.077,1.082-0.309,1.392-0.695c0.309-0.386,0.463-0.85,0.463-1.313
            c0-0.618-0.154-1.005-0.463-1.236c-0.31-0.232-0.696-0.31-1.159-0.232c-0.464,0.077-0.928,0.309-1.236,0.618
            c-0.31,0.386-0.541,0.772-0.541,1.313c-0.851,0.155-1.7,0.309-2.55,0.464c0-0.618,0.154-1.236,0.386-1.777
            c0.232-0.541,0.541-1.004,0.928-1.391c0.386-0.386,0.85-0.772,1.391-1.004s1.082-0.464,1.7-0.541s1.159-0.077,1.7,0
            s0.927,0.309,1.313,0.618c0.386,0.309,0.618,0.696,0.85,1.159c0.155,0.464,0.31,1.004,0.232,1.545
            c0,0.773-0.232,1.391-0.541,1.854c-0.31,0.464-0.696,0.927-1.159,1.236c0.463,0.155,0.927,0.464,1.236,0.927
            C566.022,363.468,566.178,364.086,566.1,364.937z"/>
        <path display="inline" fill="#FFFFFF" d="M575.527,367.563c-0.85-1.468-1.7-3.014-2.55-4.481
            c-0.928,1.777-1.933,3.477-2.859,5.254c-1.005,0.154-2.086,0.309-3.091,0.463c1.545-2.627,3.091-5.254,4.637-7.804
            c-1.236-2.086-2.551-4.096-3.787-6.182c1.005-0.154,2.087-0.309,3.091-0.463c0.773,1.391,1.546,2.782,2.241,4.173
            c0.85-1.623,1.777-3.246,2.627-4.869c1.005-0.154,2.087-0.309,3.092-0.463c-1.469,2.473-2.859,4.945-4.328,7.418
            c1.392,2.164,2.705,4.328,4.096,6.568C577.613,367.254,576.532,367.409,575.527,367.563z"/>
    </g>
</g>
<g id="Cat">
    <ellipse id="shadow_1_" fill="#D6E3E5" cx="240.55" cy="553.405" rx="42.191" ry="7.032"/>
    <path id="tail" fill="#B3B3B3" d="M232.282,522.264l2.396-2.859c0.541-1.004,1.004-2.009,1.468-3.014
        c-1.082,1.236-2.473,2.241-4.096,2.859c-2.473,0.85-5.1,0.772-7.495-0.387c-2.396-1.081-4.173-3.091-5.023-5.563
        s-0.772-5.1,0.386-7.495c0.387-0.772,0-1.623-0.695-2.009c-0.772-0.387-1.623,0-2.009,0.695c-1.468,3.091-1.623,6.567-0.464,9.736
        c1.159,3.245,3.477,5.795,6.568,7.264C226.023,522.959,229.268,523.191,232.282,522.264z"/>
    <g id="body">
        <path fill="#EAEAEA" d="M264.118,501.322c-9.273-0.463-17.618-3.863-23.955-9.195c-2.55,9.659-4.404,18.546-11.823,33.691
            l-10.432,12.44l17.309,10.587l9.582-11.591c1.314,0.386,2.705,0.695,4.096,1.004c1.236,0.31,2.473,0.541,3.632,0.773
            l-0.773,15.686L272,554.486l0.85-17c0-0.077,0-0.154,0-0.231l4.172-37.246C272.927,501.014,268.6,501.555,264.118,501.322z"/>
        <path fill="#DEDEDD" d="M235.759,549.231c1.623-2.627,1.004-5.949-4.019-9.041c-5.022-3.091-12.595-4.79-14.218-2.163
            L235.759,549.231z"/>
        <path fill="#C4C3C3" d="M233.132,547.609c1.004-1.623,1.313-3.246,0.695-3.632c-0.618-0.387-1.932,0.618-2.936,2.318
            L233.132,547.609z"/>
        <path fill="#C4C3C3" d="M228.109,544.596c1.005-1.623,1.314-3.246,0.696-3.632c-0.618-0.387-1.932,0.618-2.937,2.318
            L228.109,544.596z"/>
        <path fill="#C4C3C3" d="M223.164,541.505c1.004-1.623,1.313-3.246,0.695-3.632c-0.618-0.387-1.932,0.618-2.936,2.317
            L223.164,541.505z"/>
        <path fill="#FFFFFF" d="M270.764,504.723c-2.937,0.077-4.018-3.091-4.018-3.091l0,0c0-0.077-0.078-0.154-0.078-0.31
            c-0.85,0-1.7,0-2.55-0.077c-3.786-0.154-7.418-0.927-10.896-2.009c-0.772,0.928-1.545,1.932-2.396,3.091
            c-0.85,0.541-2.009,1.005-3.323,0.541c0,0,1.005,0.772,2.396,0.85c-3.864,6.027-7.186,14.296-8.963,22.178
            c-0.232,1.159-1.159,7.109-1.236,8.731c3.013,1.082,6.491,2.164,10.2,3.014c5.332,1.159,10.277,1.854,14.295,1.932
            c0.309-0.772,1.468-4.25,1.7-5.1c0,0,0.463-1.777,0.695-2.704c1.854-8.114,2.241-17.31,1.313-24.496
            c1.314,0.851,2.859,0.695,2.859,0.695c-1.932-0.463-2.627-2.163-2.859-3.245C269.373,505.264,270.764,504.723,270.764,504.723z"/>
        <path fill="#DEDEDD" d="M272.695,554.486c0-3.091-4.868-5.563-10.741-5.486c-5.95,0.077-10.664,2.627-10.664,5.718
            L272.695,554.486z"/>
        <path fill="#C4C3C3" d="M269.604,554.486c0-1.932-0.618-3.478-1.313-3.478c-0.696,0-1.236,1.546-1.236,3.478H269.604z"/>
        <path fill="#C4C3C3" d="M263.732,554.563c0-1.932-0.618-3.478-1.314-3.478c-0.695,0-1.236,1.546-1.236,3.478H263.732z"/>
        <path fill="#C4C3C3" d="M257.937,554.641c0-1.932-0.618-3.477-1.314-3.477c-0.695,0-1.236,1.545-1.236,3.477H257.937z"/>
        <path fill="#DEDEDD" d="M277.1,495.682l-4.096,4.173c2.009,6.954-7.032,13.291-12.363,18.159c-0.309-0.541-0.696-1.159-1.237-1.7
            c-5.1-5.409-17-13.059-14.373-21.25l-4.25-4.559c-3.477,9.041,6.027,26.891,11.127,32.3c1.854,2.009,4.018,2.396,5.795,1.777
            c1.082,2.781,5.1,4.25,8.268,1.082C270.996,520.641,280.191,504.104,277.1,495.682z"/>
    </g>
    <g id="Head_1_">
        <path fill="#DEDEDD" d="M260.95,430.85c-5.1-2.473-24.496-11.591-29.673-9.813c-4.791,1.623-1.159,17.387,1.545,26.582
            C238.695,438.5,249.05,432.164,260.95,430.85z"/>
        <path fill="#EAEAEA" d="M304.687,464.695c2.396,1.082,4.868,0.464,4.868,0.464c-3.632-0.31-5.177-3.555-5.718-5.022
            c-3.014-15.996-17.773-28.591-36.164-29.519c-21.25-1.082-39.255,13.909-40.259,33.382c-1.004,19.55,15.455,36.241,36.705,37.245
            c21.25,1.082,39.254-13.909,40.259-33.382c0-0.231,0-0.463,0-0.695c1.854,1.236,3.941,1.236,3.941,1.236
            C306.309,467.709,305.227,466.164,304.687,464.695z"/>
        <path fill="#C2C1C1" d="M256.236,431.623c-5.254-2.473-18.236-8.346-21.945-7.109c-3.555,1.236-1.159,12.519,0.927,19.859
            C240.396,438.191,247.736,433.632,256.236,431.623z"/>
        <path fill="#D6D6D6" d="M247.504,491.973c-18.159-10.741-16.073-37.4-11.05-49.068c-4.096,4.405-7.032,9.813-8.346,15.764
            c-0.85,1.546-2.705,3.786-5.873,3.709c0,0,2.473,1.005,5.023,0c-0.696,1.236-1.855,2.396-3.787,2.937c0,0,1.854,0.154,3.787-0.695
            c-0.696,19.318,15.686,35.7,36.705,36.782c10.664,0.541,20.477-2.937,27.741-9.041
            C281.272,498.309,264.736,502.096,247.504,491.973z"/>
        <path fill="#CCCBCB" d="M260.641,461.373c-0.155,3.091-2.782,2.473-5.873,2.318c-3.091-0.155-5.409,0.154-5.254-2.937
            c0.154-3.091,2.782-5.409,5.873-5.255C258.477,455.731,260.795,458.282,260.641,461.373z"/>
        <g>
            <path fill="#232020" d="M256.545,461.759c-0.077,0.851-0.772,0.618-1.623,0.541s-1.468,0.155-1.468-0.695
                c0.077-0.85,0.772-1.468,1.623-1.468S256.623,460.909,256.545,461.759z"/>
            <path fill="#232020" d="M279.959,463.072c-0.077,0.851-0.772,0.541-1.623,0.464s-1.468,0.232-1.468-0.618
                c0.077-0.85,0.773-1.468,1.623-1.468C279.341,461.527,279.959,462.223,279.959,463.072z"/>
        </g>
        <path fill="#010101" d="M278.877,476.132c-0.155,3.091-3.168,5.486-6.723,5.332c-1.7-0.077-3.322-0.772-4.481-1.932
            s-1.777-2.551-1.7-4.096h-0.077v-2.318c1.391-0.154,2.55-1.236,2.627-2.704c0.078-1.623-1.236-1.933-2.782-2.01
            c-1.623-0.077-2.859,0.077-2.936,1.7c-0.078,1.468,0.927,2.705,2.318,2.937v2.318l0,0c-0.077,1.468-0.85,2.858-2.086,3.863
            c-1.313,1.005-2.936,1.546-4.713,1.469c-1.7-0.078-3.323-0.773-4.482-1.933s-1.777-2.55-1.7-4.095l-0.772-0.078
            c-0.077,1.7,0.618,3.4,1.932,4.637c1.314,1.236,3.091,2.009,5.023,2.087c0.154,0,0.309,0,0.386,0c1.777,0,3.478-0.541,4.791-1.623
            c0.85-0.695,1.545-1.546,1.932-2.473c0.309,1.004,0.85,1.854,1.623,2.704c1.313,1.236,3.091,2.01,5.022,2.087
            c0.155,0,0.309,0,0.387,0c3.786,0,6.954-2.628,7.186-6.104L278.877,476.132z"/>
        <g>
            <path fill="#EAAAAB" d="M267.055,480.15c-0.773-0.773-1.391-1.7-1.623-2.705c-0.386,0.928-1.082,1.777-1.932,2.473
                c-0.464,0.387-1.004,0.695-1.545,0.928c0.386,5.254,1.545,9.272,2.937,9.891c0.077,0,0.231,0.077,0.309,0.077
                c0.154,0,0.231,0,0.309-0.077c1.391-0.541,2.55-4.481,2.936-9.505C268.059,480.923,267.518,480.536,267.055,480.15z"/>
        </g>
        <g>
            <path fill="#303030" d="M229.886,473.891c-5.177,0-8.963-1.236-11.436-3.709c-0.155-0.154-0.155-0.386,0-0.541
                c0.154-0.154,0.386-0.154,0.541,0c7.418,7.496,27.818,0.387,27.973,0.31c0.231-0.077,0.386,0,0.463,0.231
                c0.077,0.232,0,0.387-0.232,0.464c-0.077,0-5.254,1.854-11.436,2.704C233.673,473.736,231.664,473.891,229.886,473.891z"/>
            <path fill="#303030" d="M225.636,481.695c-3.091,0-5.641-0.695-7.573-2.086c-0.154-0.155-0.231-0.387-0.077-0.541
                c0.155-0.154,0.386-0.232,0.541-0.077c8.577,6.182,27.432-4.327,27.664-4.405c0.155-0.077,0.386,0,0.541,0.155
                c0.154,0.154,0,0.386-0.155,0.541c-0.077,0-4.868,2.704-10.741,4.636C231.896,481.077,228.496,481.695,225.636,481.695z"/>
        </g>
        <path fill="#DEDEDD" d="M300.127,450.014c3.554-8.964,8.268-23.491,3.786-25.5c-4.945-2.241-24.727,4.791-30.291,6.877
            C285.291,433.632,294.873,440.664,300.127,450.014z"/>
        <g>
            <path fill="#303030" d="M302.445,477.522c-2.55,0-5.486-0.386-8.731-1.236c-6.027-1.468-11.05-3.863-11.05-3.863
                c-0.154-0.077-0.309-0.31-0.154-0.541c0.077-0.231,0.309-0.31,0.541-0.154c0.232,0.077,19.782,9.272,27.896,2.55
                c0.154-0.154,0.387-0.077,0.541,0.077s0.077,0.387-0.077,0.541C309.245,476.673,306.231,477.522,302.445,477.522z"/>
            <path fill="#303030" d="M304.918,485.714c-3.322,0-7.186-1.005-11.745-2.937c-5.641-2.473-10.2-5.641-10.277-5.641
                c-0.155-0.155-0.232-0.387-0.077-0.541c0.154-0.154,0.386-0.232,0.541-0.077c0.155,0.154,17.927,12.44,27.045,7.186
                c0.155-0.077,0.387-0.077,0.541,0.155c0.077,0.154,0.077,0.386-0.154,0.541C309.168,485.25,307.159,485.714,304.918,485.714z"/>
        </g>
        <g>
            <path fill="#828383" d="M268.522,481.231c-0.386,5.486-1.777,9.582-3.322,9.582c-1.546,0-2.937-4.327-3.323-9.968
                c-0.078,0.077-0.232,0.077-0.309,0.154c0.386,5.873,1.854,10.123,3.632,10.123c1.7,0,3.168-4.096,3.554-9.736
                C268.754,481.309,268.677,481.231,268.522,481.231z"/>
        </g>
        <path fill="#C2C1C1" d="M297.964,446.691c2.704-7.032,5.873-17.387,2.55-18.933c-3.478-1.545-16.537,2.782-22.177,4.791
            C286.527,435.178,293.327,440.2,297.964,446.691z"/>
    </g>
    <g>
        <path fill="#D95027" d="M295.8,429.613c-4.172-8.731-13.986-19.55-25.577-28.204c-5.873-4.404-10.741-6.182-14.141-6.8
            c1.236,2.473,1.004,5.641-0.928,7.882c-0.85,1.081-2.009,1.777-3.245,2.163c3.168,2.473,4.095,8.269,1.7,12.209
            c-3.014,4.791-5.254,17.541-5.254,17.541c1.623,1.854,12.287,6.568,20.787,5.796s14.759,2.396,23.027,5.641
            c8.269,3.245,9.273,1.468,9.273,1.468S299.973,438.346,295.8,429.613z"/>
        <path fill="#FFFFFF" d="M300.591,443.445c0.541,2.396,0.773,3.863,0.773,3.863s-1.005,1.777-9.273-1.468
            s-14.527-6.413-23.027-5.641s-19.164-3.941-20.786-5.796c0,0,0.386-2.163,1.082-5.1c-2.241-0.387-3.4-0.541-4.095-0.077
            c-2.241,1.622-7.65,10.354-4.791,13.214c2.859,2.858,3.787,4.25,12.364,4.559c8.577,0.387,18.236-3.091,28.05,1.468
            c9.814,4.56,15.3,8.578,18.777,8.887c3.478,0.231,4.096-5.486,5.563-7.882C306.387,447.695,304.841,446.072,300.591,443.445z"/>
        <circle fill="#FFFFFF" cx="249.591" cy="397.932" r="7.186"/>
        <path fill="#B23B25" d="M271.459,435.178c-5.1-3.941-2.782-6.568-4.559-14.296s-3.4-13.214-7.65-16.769
            c-1.004-0.85-2.241-1.622-3.632-2.317c-0.155,0.231-0.309,0.54-0.541,0.772c-0.85,1.082-2.009,1.777-3.245,2.24
            c3.168,2.474,4.095,8.269,1.7,12.21c-3.014,4.79-5.254,17.54-5.254,17.54c1.623,1.855,12.286,6.568,20.786,5.796
            c4.173-0.387,7.882,0.231,11.437,1.236C277.177,439.272,275.246,438.113,271.459,435.178z"/>
    </g>
</g>
<g id="Dog">
    <ellipse id="shadow" fill="#D6E3E5" cx="349.891" cy="550.854" rx="42.191" ry="7.109"/>
    <g id="arm">
        <g>
            <path fill="#F3F3F3" d="M397.336,477.214l-1.699,7.649l6.182,1.546c6.723,0.464,15.3-1.391,22.486-3.863
                c0.077,0,0.154-0.078,0.231-0.078c0.31-0.077,0.618-0.231,0.928-0.309c0.077,0,0.154-0.077,0.309-0.077
                c0.31-0.077,0.618-0.232,0.928-0.31c0.077,0,0.077,0,0.154-0.077c0.541-0.231,1.082-0.387,1.623-0.618
                c0.154-0.077,0.309-0.154,0.463-0.154c0.232-0.077,0.387-0.154,0.618-0.231c0.155-0.078,0.387-0.155,0.541-0.232
                c0.155-0.077,0.387-0.154,0.541-0.231c0.232-0.077,0.387-0.155,0.618-0.232c0.155-0.077,0.31-0.154,0.464-0.231
                c0.31-0.154,0.618-0.309,0.85-0.387c0.078-0.077,0.155-0.077,0.31-0.154c0.231-0.154,0.541-0.231,0.772-0.387
                c0.077-0.077,0.232-0.077,0.31-0.154c0.231-0.077,0.386-0.231,0.618-0.309c0.077-0.077,0.231-0.077,0.309-0.155
                c0.155-0.077,0.387-0.231,0.541-0.309c0.077-0.077,0.154-0.077,0.232-0.154c0.231-0.155,0.463-0.31,0.695-0.464
                c1.468-0.928,2.473-2.087,3.091-3.245c0.231-0.387,0.386-0.773,0.464-1.159c0.154-0.618,0.231-1.159,0.231-1.777
                c0-0.387-0.077-0.773-0.154-1.082c-0.387-1.623-1.469-3.014-2.937-3.632c-0.31-0.154-0.695-0.231-1.082-0.31
                c-0.772-0.154-1.623-0.154-2.473,0.078c-0.464,0.077-0.928,0.231-1.391,0.463c-0.464,0.232-0.928,0.464-1.469,0.773
                c-0.231,0.154-0.464,0.309-0.772,0.463c-0.077,0-0.077,0.078-0.154,0.078c-0.232,0.154-0.387,0.231-0.618,0.386
                c-0.077,0-0.077,0.077-0.155,0.077c-0.231,0.155-0.463,0.31-0.618,0.464l0,0c-7.186,5.1-15.995,12.673-23.877,9.736
                L397.336,477.214z"/>
        </g>
        <path fill="#D8D8D8" d="M436.978,473.428c-4.637,3.554-21.714,9.04-25.269,9.891c-3.168,0.695-8.423,1.468-9.427,3.091
            c11.358,0.541,27.663-5.178,33.922-9.195c2.937-1.854,4.019-4.482,3.71-6.646C439.373,471.418,438.445,472.346,436.978,473.428z"
            />
    </g>
    <g id="Body">
        <path fill="#F3F3F3" d="M403.904,483.241c0.464-1.546,0.928-3.091,1.313-4.56c-6.182,3.168-13.213,4.791-20.632,4.482
            c-13.059-0.618-24.341-7.264-31.449-17.078c0,0.078-0.078,0.155-0.078,0.155c-0.231,0-0.463,0-0.695-0.077
            c-0.154,0-0.231,0-0.386,0c-0.232,0-0.464,0-0.618,0c-0.155,0-0.232,0-0.387,0c-0.231,0-0.464,0-0.618,0s-0.309,0-0.387,0
            c-0.231,0-0.463,0-0.695,0.077c-0.154,0-0.309,0-0.386,0.077c-0.232,0-0.464,0.077-0.695,0.077c-0.155,0-0.232,0-0.387,0.077
            c-0.232,0-0.464,0.077-0.695,0.077c-0.077,0-0.232,0-0.31,0.077c-0.927,0.155-1.777,0.31-2.704,0.541
            c-0.077,0-0.232,0.077-0.31,0.077c-0.231,0.078-0.541,0.155-0.772,0.232c-0.154,0-0.309,0.077-0.387,0.077
            c-0.231,0.077-0.463,0.154-0.695,0.231c-0.154,0.077-0.309,0.077-0.464,0.155c-0.231,0.077-0.463,0.154-0.695,0.231
            c-0.154,0.077-0.309,0.077-0.463,0.154c-0.232,0.077-0.464,0.154-0.696,0.232c-0.154,0.077-0.309,0.077-0.463,0.154
            c-0.232,0.077-0.464,0.154-0.695,0.231c-0.155,0.077-0.31,0.077-0.464,0.154c-0.851,0.31-1.623,0.618-2.473,1.005
            c-0.155,0.077-0.31,0.154-0.464,0.231c-0.232,0.078-0.387,0.155-0.618,0.232c-0.154,0.077-0.387,0.154-0.541,0.231
            s-0.387,0.154-0.541,0.232c-0.154,0.077-0.387,0.154-0.541,0.231s-0.386,0.154-0.541,0.231c-0.154,0.077-0.386,0.155-0.541,0.232
            c-0.154,0.077-0.309,0.154-0.541,0.231c-0.154,0.077-0.386,0.154-0.54,0.31c-0.155,0.077-0.31,0.154-0.464,0.231
            c-0.232,0.077-0.387,0.231-0.618,0.309c-0.154,0.078-0.31,0.155-0.387,0.232c-0.309,0.154-0.618,0.386-0.927,0.541
            c-0.078,0.077-0.155,0.077-0.232,0.154c-0.231,0.154-0.464,0.309-0.695,0.387c-0.077,0.077-0.231,0.154-0.309,0.231
            c-0.155,0.077-0.387,0.231-0.541,0.31c-0.077,0.077-0.232,0.154-0.31,0.231c-0.154,0.077-0.309,0.231-0.464,0.309
            c-0.077,0.077-0.231,0.155-0.309,0.232c-0.154,0.077-0.31,0.231-0.464,0.309c-0.077,0.077-0.231,0.155-0.309,0.232
            c-0.155,0.077-0.31,0.231-0.464,0.309c-0.077,0.077-0.154,0.154-0.231,0.231c-0.155,0.078-0.31,0.232-0.464,0.31
            c-0.077,0.077-0.155,0.077-0.232,0.154c-0.231,0.155-0.386,0.31-0.541,0.464c-1.313,1.159-2.009,2.396-2.24,3.632
            c0,0.154-0.077,0.387-0.077,0.541c0,0.387,0,0.695,0,1.005c0,0.154,0.077,0.309,0.077,0.54c0.077,0.31,0.154,0.618,0.309,0.928
            c0.232,0.618,0.618,1.159,1.082,1.623c0.464,0.463,1.005,0.85,1.623,1.081c0.154,0.078,0.309,0.155,0.464,0.155
            c0.309,0.077,0.617,0.154,1.004,0.231c0.154,0,0.31,0,0.541,0c1.236,0,2.55-0.541,3.863-1.623
            c0.155-0.154,0.387-0.309,0.541-0.463c0.077,0,0.077-0.078,0.155-0.078c0.154-0.154,0.309-0.231,0.463-0.386l0,0
            c0.696-0.618,1.392-1.236,2.087-1.932c0,0,0,0,0.077-0.077c0.154-0.155,0.309-0.31,0.541-0.464l0.077-0.077
            c0.154-0.155,0.309-0.31,0.541-0.464l0.077-0.077c0.154-0.154,0.31-0.31,0.541-0.464l0.077-0.077
            c0.154-0.154,0.31-0.31,0.541-0.464l0.077-0.077c0.154-0.154,0.387-0.31,0.541-0.464l0.077-0.077
            c0.154-0.154,0.387-0.309,0.541-0.464c0,0,0.077,0,0.077-0.077c0.231-0.154,0.387-0.309,0.618-0.464l0,0
            c2.164-1.622,4.404-3.014,6.723-3.786l0,0c0.232-0.077,0.464-0.154,0.695-0.231c0,0,0,0,0.077,0
            c0.232-0.077,0.464-0.154,0.618-0.154h0.078c0.231-0.078,0.463-0.078,0.618-0.155h0.077c0.231,0,0.386-0.077,0.618-0.077h0.077
            c0.231,0,0.387-0.077,0.618-0.077h0.077c0.231,0,0.387,0,0.618,0h0.077c0.232,0,0.464,0,0.618,0h0.077
            c0.232,0,0.464,0.077,0.695,0.077c0,0,0,0,0.078,0c0.231,0,0.463,0.077,0.695,0.154l0,0c-2.705,7.264-5.719,14.527-8.5,20.4
            c0,0,0,0,0,0.077c-0.232,0.464-0.387,0.851-0.618,1.313l0,0c-0.464,0.851-0.851,1.7-1.313,2.473l0,0l-20.71,22.796l14.76,13.445
            l9.891-10.818c2.782,2.396,6.182,4.482,10.046,6.027c2.627,1.082,5.254,1.777,7.804,2.241v19.473h20.014v-23.568
            c0.541-0.541,1.082-1.081,1.546-1.622c1.082-1.005,2.086-2.241,3.168-3.709c5.796-6.027,11.282-19.474,15.455-32.068
            L403.904,483.241z"/>
        <path fill="#FFFFFF" d="M333.277,536.173c2.086-2.241,3.786-4.637-3.245-11.668c-4.096-4.096-10.818-5.255-12.905-3.014
            L333.277,536.173z"/>
        <path fill="#C4C3C3" d="M327.559,531.15c1.237-1.392,1.855-2.937,1.392-3.4c-0.541-0.464-1.932,0.309-3.246,1.7L327.559,531.15z"
            />
        <path fill="#C4C3C3" d="M323.85,527.519c1.236-1.392,1.854-2.937,1.392-3.4c-0.541-0.464-1.933,0.31-3.246,1.7L323.85,527.519z"/>
        <path fill="#C4C3C3" d="M320.604,524.582c1.236-1.391,1.854-2.937,1.391-3.4c-0.541-0.464-1.932,0.31-3.245,1.7L320.604,524.582z"
            />
        <path fill="#FFFFFF" d="M381.959,552.091c0-3.014-4.714-5.486-10.586-5.486c-5.873,0-10.587,2.473-10.587,5.486H381.959z"/>
        <path fill="#C4C3C3" d="M378.945,552.091c0-1.854-0.541-3.399-1.236-3.399s-1.236,1.545-1.236,3.399H378.945z"/>
        <path fill="#C4C3C3" d="M373.15,552.091c0-1.854-0.541-3.399-1.236-3.399c-0.696,0-1.236,1.545-1.236,3.399H373.15z"/>
        <path fill="#C4C3C3" d="M367.432,552.091c0-1.854-0.541-3.399-1.236-3.399s-1.236,1.545-1.236,3.399H367.432z"/>
        <path fill="#E5E5E4" d="M328.563,486.1c-0.927,0.618-1.777,1.005-2.627,1.159c-1.623,5.95,0.695,13.755,6.259,19.859l4.868-5.332
            C331.887,496.995,328.796,491.277,328.563,486.1z"/>
        <defs>
            <filter id="Adobe_OpacityMaskFilter" filterUnits="userSpaceOnUse" x="343.622" y="524.081" width="34.241" height="8.653">
                <feColorMatrix  type="matrix" values="1 0 0 0 0  0 1 0 0 0  0 0 1 0 0  0 0 0 1 0"/>
            </filter>
        </defs>
        <mask maskUnits="userSpaceOnUse" x="343.622" y="524.081" width="34.241" height="8.653" id="SVGID_2_">
            <g filter="url(#Adobe_OpacityMaskFilter)">
                
                    <ellipse transform="matrix(0.376 -0.9266 0.9266 0.376 -251.6727 654.5506)" fill="#FFFFFF" cx="360.161" cy="514.14" rx="17.618" ry="26.272"/>
            </g>
        </mask>
        <path opacity="0.1" mask="url(#SVGID_2_)" fill="#010101" enable-background="new    " d="M343.709,526.514
            c0,0-0.541-2.782,1.082-2.396s-0.387,0.154,5.1,2.782c5.486,2.55,11.514,3.477,13.523,3.632c2.009,0.154,9.35,0.386,14.449-1.854
            c0,0-3.632,5.1-22.022,3.863C350.509,532.154,343.709,526.514,343.709,526.514z"/>
        <path fill="#D8D8D8" d="M403.904,483.241c0.464-1.546,0.928-3.091,1.313-4.56c-6.182,3.168-13.213,4.868-20.709,4.482
            c-13.059-0.618-24.341-7.264-31.372-17.078c0,0.078,0,0.078-0.077,0.155c-4.56-0.387-10.277,0.927-15.609,3.014
            c2.704,0.772,6.027,1.777,8.577,2.858c-4.791,1.314-11.205,5.409-13.368,6.801c-3.014,1.932-5.486,5.795-7.728,6.567
            c-1.004,0.387-2.318,0.232-3.632-0.154c1.623,2.087,4.791,2.859,7.728,0.31c5.563-4.868,12.981-12.596,20.863-10.896l0,0
            c0,0.154,0,0.231-0.077,0.386c0.541,0.387,0.387,0.928,2.009,2.782c1.623,1.854,5.487,11.745,14.683,14.295
            c9.195,2.551,31.836,3.092,36.24-6.336C403.286,485.173,403.44,484.941,403.904,483.241z"/>
        <path fill="#C25028" d="M405.296,478.682c-6.183,3.168-13.214,4.868-20.71,4.482c-11.591-0.541-21.79-5.796-28.899-13.909
            c4.173,6.104,10.123,11.05,17.541,14.063c1.777,0.772,3.786,1.236,5.872,1.623c-2.396,1.236-4.095,3.709-4.018,6.645
            c0.077,4.019,3.399,7.187,7.341,7.109c4.019-0.077,7.187-3.322,7.109-7.341c-0.078-2.396-1.236-4.559-3.091-5.795
            c6.336-0.078,12.827-1.314,17.772-3.014L405.296,478.682z M377.322,492.668c-0.077-0.231-0.077-0.231-0.077-0.309h0.077l0,0
            l0.155,0.154c0.077,0.077,0.309,0.077,0.541-0.154c0.772-0.695,2.163-2.782,2.473-3.709c0.231-0.541,0.231-1.005,0.077-1.236
            c-0.077-0.078-0.077-0.078-0.154-0.078c-0.078,0-0.232,0.078-0.387,0.464c-0.154,0.31-0.154,0.31-0.154,0.31l0,0l0,0
            c0-0.232,0.695-2.164,0.85-2.396c0.077-0.077,0.31-0.31,0.541,0c0.154,0.154,0.231,0.231,0.231,1.545v0.31
            c0,1.004-0.231,1.313-0.85,2.163l-0.85,1.159l-0.155,0.155c-0.231,0.309-0.463,0.618-0.463,0.85
            c0.077,0.154,0.231,0.464,0.463,0.541c0.155,0.077,0.31,0.077,0.541-0.077l0.464-0.31c0.387-0.231,0.695-0.541,1.159-0.695
            c0.154-0.077,0.309,0,0.464,0.077c0.077,0.077,0.154,0.232,0.154,0.464c0,0.154-0.154,0.31-0.31,0.464
            c-0.077,0.077-0.231,0.077-0.386,0c-0.618-0.387-0.851-0.31-2.164,0.618c-0.618,0.464-1.159,0.541-1.622,0.464
            C377.555,493.209,377.4,492.668,377.322,492.668z M386.209,494.755c-0.154,0.154-0.231,0.154-0.231,0.154H385.9l0,0l0.077-0.231
            c0.077-0.155-0.155-0.31-0.387-0.387c-1.005-0.387-3.478-0.541-4.404-0.464c-0.618,0.077-1.005,0.31-1.082,0.541
            c0,0.077,0,0.154,0,0.231c0.077,0.078,0.154,0.155,0.618,0.078c0.387-0.078,0.387,0,0.387,0l0,0l0,0
            c-0.232,0.154-2.241,0.463-2.551,0.386c-0.077,0-0.386-0.154-0.309-0.541c0.077-0.231,0.077-0.309,1.236-0.927l0.231-0.155
            c0.851-0.463,1.236-0.463,2.318-0.309l1.392,0.231h0.231c0.309,0.077,0.772,0.077,0.927,0c0.155-0.154,0.31-0.386,0.232-0.618
            c0-0.154-0.154-0.309-0.31-0.386l-0.464-0.232c-0.386-0.154-0.85-0.386-1.158-0.772c-0.078-0.077-0.155-0.309-0.155-0.464
            c0-0.077,0.077-0.231,0.31-0.386c0.154-0.077,0.386-0.077,0.541,0.077c0.077,0.077,0.154,0.154,0.154,0.309
            c0,0.773,0.154,0.928,1.546,1.623c0.695,0.387,1.081,0.772,1.158,1.236C386.596,494.368,386.209,494.755,386.209,494.755z
             M387.678,492.282c0.077,0.077,0.077,0.463-0.31,0.463c-0.231,0-0.309,0.077-1.468-0.541l-0.232-0.154
            c-0.85-0.464-1.004-0.85-1.391-1.854l-0.541-1.313l-0.077-0.231c-0.154-0.31-0.31-0.773-0.541-0.773
            c-0.154-0.077-0.464-0.077-0.695,0.077c-0.154,0.078-0.231,0.232-0.231,0.464v0.541c0.077,0.464,0.077,0.928-0.078,1.391
            c-0.077,0.155-0.154,0.31-0.309,0.31c-0.077,0-0.31,0.077-0.464-0.077c-0.077-0.077-0.231-0.31-0.231-0.464
            c0-0.077,0.077-0.231,0.231-0.31c0.618-0.386,0.695-0.617,0.618-2.163c-0.077-0.772,0.154-1.313,0.464-1.623
            c0.387-0.309,0.927-0.231,0.927-0.231c0.232,0.077,0.232,0.077,0.31,0.077v0.077l0,0h-0.231c-0.155,0-0.232,0.232-0.155,0.541
            c0.232,1.082,1.313,3.245,1.854,4.019c0.387,0.463,0.773,0.695,1.005,0.695c0.077,0,0.154-0.077,0.154-0.077
            c0-0.077,0.077-0.232-0.231-0.541c-0.232-0.31-0.232-0.31-0.232-0.31l0,0l0,0C386.286,490.505,387.6,492.05,387.678,492.282z"/>
    </g>
    <g id="Head">
        <path fill="#FFFFFF" d="M419.745,418.332l-7.418-8.114c-6.568-5.331-14.836-8.654-23.877-9.118
            c-8.887-0.386-17.232,2.01-24.187,6.491c0,0,0,0,0.077,0l-8.423,7.728c0,0-1.159,33.613-5.95,45.359
            c6.491,12.75,19.396,21.79,34.696,22.486c15.377,0.695,29.209-7.109,36.781-19.318
            C417.736,451.559,419.745,418.332,419.745,418.332z"/>
        <g>
            <path fill="#232020" d="M374.077,435.409c-0.077,1.854-2.163-0.077-4.481-0.231c-2.318-0.078-3.864,1.699-3.786-0.155
                c0.077-1.854,2.009-3.322,4.327-3.245C372.377,431.854,374.154,433.478,374.077,435.409z"/>
            <path fill="#232020" d="M407.305,436.954c-0.077,1.854-2.164-0.077-4.404-0.231c-2.241-0.077-3.787,1.7-3.71-0.154
                c0.078-1.854,2.01-3.323,4.25-3.246C405.682,433.4,407.459,435.022,407.305,436.954z"/>
        </g>
        <path fill="#A2A1A2" d="M386.519,442.75c-9.736-0.464-17.928,7.032-18.392,16.769l-0.541,10.74c0,0,9.196,2.087,17.696,2.628
            s17.463-1.005,17.463-1.005l0.541-10.741C403.673,451.404,396.178,443.137,386.519,442.75z"/>
        <path fill="#676868" d="M397.182,461.141c-0.154-0.463-0.695-0.695-1.236-0.541c-3.94,1.546-8.19-3.014-9.195-4.172l0.077-2.318
            c2.087-0.31,3.709-2.087,3.786-4.25c0.155-2.473-1.854-3.014-4.404-3.091c-2.473-0.155-4.559,0.154-4.637,2.704
            c-0.077,2.164,1.392,4.096,3.4,4.637l-0.077,2.396c-0.772,0.927-4.481,4.868-8.654,3.399c-0.464-0.154-1.005,0.077-1.159,0.618
            c-0.154,0.464,0.077,1.005,0.618,1.159c4.714,1.546,8.654-1.777,10.2-3.399c1.391,1.545,4.713,4.559,8.422,4.559
            c0.773,0,1.546-0.154,2.318-0.464C397.182,462.223,397.414,461.682,397.182,461.141z"/>
        <g>
            <g>
                <circle fill="#676868" cx="378.559" cy="449.782" r="0.773"/>
                <circle fill="#676868" cx="378.327" cy="455.036" r="0.772"/>
                <circle fill="#676868" cx="374.928" cy="452.641" r="0.773"/>
                <circle fill="#676868" cx="374.695" cy="457.896" r="0.772"/>
            </g>
            <g>
                <circle fill="#676868" cx="393.318" cy="450.477" r="0.773"/>
                <circle fill="#676868" cx="393.086" cy="455.732" r="0.773"/>
                <circle fill="#676868" cx="396.641" cy="453.646" r="0.772"/>
                <circle fill="#676868" cx="396.409" cy="458.977" r="0.773"/>
            </g>
        </g>
        <path fill="#F3F3F3" d="M364.341,407.668c-16.536-5.718-28.591,12.982-33.459,22.719c-4.791,9.736,7.187,33.305,15.223,34.309
            c8.036,1.005,9.813-49.3,9.813-49.3L364.341,407.668z"/>
        <path fill="#F3F3F3" d="M412.019,409.909c17-4.173,27.277,15.609,31.141,25.731c3.863,10.123-10.277,32.532-18.313,32.764
            c-8.114,0.232-5.101-50.072-5.101-50.072L412.019,409.909z"/>
        <path fill="#F496B2" d="M434.736,434.404c-0.618-0.618-1.313-1.004-2.164-1.004l-14.141-0.541l0.232-5.332l15.764,0.618l0.231-5.1
            l-21.868-0.851l-0.464,12.519c0,0.85,0.232,1.622,0.851,2.24s1.313,0.928,2.163,1.005l14.141,0.541l-0.231,5.332l-18.082-0.695
            l0.851-20.941l-15.146-0.464l-7.187,3.787l-0.232,3.709l7.573,0.077l-0.077,3.091l-15.532-0.618l0.31-7.65
            c0-0.85-0.232-1.545-0.851-2.24c-0.618-0.618-1.313-1.005-2.163-1.005l-20.709-0.85c-0.851,0-1.623,0.231-2.241,0.85
            s-0.928,1.313-1.005,2.164l-0.695,17.85l-18.468-0.695l0.231-5.332l14.141,0.541c0.851,0,1.623-0.231,2.241-0.85
            s0.928-1.314,1.005-2.164l0.386-9.428c0-0.85-0.231-1.545-0.85-2.24c-0.618-0.618-1.313-1.005-2.164-1.005l-17.154-0.695
            c-0.85,0-1.623,0.231-2.24,0.85c-0.619,0.618-0.928,1.314-1.005,2.164l-0.154,4.791l6.104,0.231l0.077-2.781l11.127,0.463
            l-0.231,5.332l-14.142-0.541c-0.85,0-1.622,0.232-2.24,0.851s-0.928,1.313-1.005,2.163l-0.464,12.519l26.892,1.082v-0.078
            c0.231,0.078,0.541,0.155,0.772,0.155l20.709,0.85c0.85,0,1.546-0.231,2.241-0.85c0.618-0.618,1.004-1.313,1.004-2.164l0.31-7.805
            l15.531,0.618l-0.386,10.896l14.527,0.541l0,0l21.095,0.851c0.851,0,1.546-0.232,2.241-0.851c0.618-0.618,1.005-1.313,1.005-2.163
            l0.386-9.428C435.586,435.796,435.277,435.022,434.736,434.404z M374.772,441.591l-14.682-0.618l0.618-15.841l14.682,0.618
            L374.772,441.591z M398.805,436.8L398.805,436.8l0.077-2.163l0.387-9.118l10.509,0.386l-0.695,18.392l-10.51-0.387L398.805,436.8z
            "/>
        <g>
            <path fill="#EDB81E" d="M364.341,415.473c-0.695-1.082,4.327-57.414,4.327-57.414l35.236,47.523c0,0,1.777,4.945-19.396,10.123
                C366.505,420.032,364.341,415.473,364.341,415.473z"/>
            <polygon fill="#FFFFFF" points="386.981,389.818 383.272,389.2 380.723,391.905 380.182,388.195 376.782,386.573 
                380.182,384.873 380.723,381.164 383.272,383.868 386.981,383.25 385.204,386.573          "/>
            <polygon fill="#FFFFFF" points="375.854,406.818 372.146,406.2 369.519,408.827 368.978,405.195 365.654,403.495 
                368.978,401.873 369.519,398.164 372.146,400.868 375.854,400.25 374.077,403.495          "/>
            <path fill="#FFFFFF" d="M371.45,372.741l-3.168,1.932l-1.005-0.464c-0.154,1.777-0.31,3.709-0.464,5.564h0.154l1.854,3.245
                l1.469-3.4l3.632-0.772l-2.859-2.396L371.45,372.741z"/>
            <polygon fill="#FFFFFF" points="388.45,398.318 393.086,400.559 393.859,405.659 397.414,401.95 401.818,402.723 393.704,391.75 
                393.086,396             "/>
        </g>
        <path fill="#8C8C8C" d="M402.668,471.805v-0.154c-3.863-1.159-10.663-2.01-16.382-2.164c-4.868-0.154-12.132,0.541-16.613,1.159
            c3.245,0.618,9.504,1.777,15.531,2.163C393.704,473.35,402.668,471.805,402.668,471.805z"/>
        <path fill="#7F7F7F" d="M346.104,464.695c-0.541-0.077-1.159-0.231-1.777-0.541c-0.077,0.077-0.231,0.232-0.309,0.387
            c-0.696,0.927-1.7,1.545-2.859,1.7c-1.159,0.154-2.318-0.155-3.245-0.851c-0.928-0.695-1.546-1.7-1.7-2.858
            c-0.155-1.159,0.154-2.318,0.85-3.246c0.695-0.927,1.7-1.545,2.859-1.7l-0.541-3.632c-2.164,0.31-4.019,1.392-5.332,3.091
            c-1.313,1.7-1.854,3.787-1.545,5.95c0.309,2.164,1.391,4.019,3.091,5.332c1.391,1.082,3.091,1.623,4.868,1.623
            c0.386,0,0.772,0,1.081-0.077c2.164-0.31,4.019-1.392,5.332-3.091c0.155-0.232,0.232-0.31,0.387-0.387
            c1.159-0.851,1.236-1.854,1.082-2.937C347.65,464.309,346.877,464.772,346.104,464.695z"/>
        <path fill="#D8D8D8" d="M424.923,463.691c-1.932,0-3.168-0.928-4.019-1.7c0.851,3.94,2.087,6.49,3.941,6.413
            c5.95-0.154,15.146-12.286,18.082-22.718c-1.159,1.932-2.628,3.94-4.637,6.336C430.409,461.296,427.704,463.691,424.923,463.691z"
            />
    </g>
</g>
<g id="balloons">
    <g id="balloon3">
        <path fill="#EAAE53" d="M163.509,333.718c-5.332-4.868-13.677-4.482-18.545,0.85c-4.868,5.332-9.428,19.086-4.096,23.955
            c0.155,0.154,0.386,0.309,0.618,0.463l-3.555,2.627l2.473,1.159l1.237-3.709c5.795,3.787,18.082-1.7,22.718-6.877
            C169.227,346.932,168.841,338.664,163.509,333.718z"/>
        
            <ellipse transform="matrix(0.5801 -0.8146 0.8146 0.5801 -212.7678 277.1616)" opacity="0.4" fill="#FFFFFF" enable-background="new    " cx="162.438" cy="344.946" rx="2.55" ry="1.777"/>
    </g>
    <g id="balloon2">
        <path fill="#82CFD1" d="M307.546,235.813l-4.482-2.55c6.337-6.646,2.009-23.955-3.554-31.218
            c-5.873-7.65-16.769-9.118-24.418-3.246c-7.65,5.873-9.118,16.769-3.246,24.418c5.873,7.65,22.641,16.768,30.291,10.973
            c0.232-0.232,0.541-0.463,0.773-0.695l2.55,5.254L307.546,235.813z"/>
        
            <ellipse transform="matrix(-0.6985 -0.7157 0.7157 -0.6985 346.467 551.7116)" opacity="0.4" fill="#FFFFFF" enable-background="new    " cx="289.466" cy="202.863" rx="3.323" ry="2.395"/>
    </g>
    <g id="balloon1">
        <path fill="#F496B2" d="M463.868,235.041c-7.264-5.1-17.31-3.323-22.332,3.941c-5.1,7.264-8.423,24.573-1.159,29.672
            c0.232,0.155,0.541,0.31,0.773,0.464l-3.864,3.709l3.168,1.005l0.928-4.637c7.572,3.709,21.637-4.868,26.505-11.823
            C472.909,250.187,471.132,240.141,463.868,235.041z"/>
        
            <ellipse transform="matrix(0.4714 -0.8819 0.8819 0.4714 25.9794 540.9281)" opacity="0.4" fill="#FFFFFF" enable-background="new    " cx="464.238" cy="248.792" rx="3.091" ry="2.164"/>
    </g>
</g>
<g id="Snow__x28_placeholder_x29_" display="none">
    <g display="inline" opacity="0.65">
        <circle fill="#FFFFFF" cx="373.536" cy="254.9" r="2.009"/>
        <circle fill="#FFFFFF" cx="401.277" cy="323.054" r="2.009"/>
        <circle fill="#FFFFFF" cx="456.063" cy="254.9" r="3.786"/>
        <circle fill="#FFFFFF" cx="283.746" cy="290.368" r="3.786"/>
        <circle fill="#FFFFFF" cx="435.973" cy="307.987" r="2.009"/>
        <circle fill="#FFFFFF" cx="463.714" cy="376.064" r="2.009"/>
        <circle fill="#FFFFFF" cx="518.423" cy="307.987" r="3.786"/>
        <circle fill="#FFFFFF" cx="346.104" cy="343.377" r="3.786"/>
        <circle fill="#FFFFFF" cx="298.736" cy="264.636" r="2.009"/>
        <circle fill="#FFFFFF" cx="229.964" cy="238.441" r="2.009"/>
        <circle fill="#FFFFFF" cx="242.482" cy="324.909" r="3.786"/>
        <circle fill="#FFFFFF" cx="334.05" cy="174.768" r="3.786"/>
        <circle fill="#FFFFFF" cx="321.918" cy="402.877" r="2.009"/>
        <circle fill="#FFFFFF" cx="263.268" cy="358.446" r="2.009"/>
        <circle fill="#FFFFFF" cx="250.982" cy="444.991" r="3.787"/>
        <circle fill="#FFFFFF" cx="381.032" cy="326.609" r="3.786"/>
        <circle fill="#FFFFFF" cx="506.986" cy="215.877" r="2.009"/>
        <circle fill="#FFFFFF" cx="535.964" cy="148.341" r="2.009"/>
        <circle fill="#FFFFFF" cx="449.032" cy="157.227" r="3.786"/>
        <circle fill="#FFFFFF" cx="595.309" cy="254.9" r="3.786"/>
        <circle fill="#FFFFFF" cx="613.777" cy="363.7" r="2.009"/>
        <circle fill="#FFFFFF" cx="642.755" cy="296.164" r="2.009"/>
        <circle fill="#FFFFFF" cx="555.822" cy="305.05" r="3.786"/>
        <circle fill="#FFFFFF" cx="429.25" cy="154.214" r="3.786"/>
        <circle fill="#FFFFFF" cx="447.641" cy="263.014" r="2.009"/>
        <circle fill="#FFFFFF" cx="389.687" cy="204.364" r="3.786"/>
        <circle fill="#FFFFFF" cx="312.8" cy="198.491" r="3.786"/>
        <circle fill="#FFFFFF" cx="202.996" cy="187.441" r="2.009"/>
        <circle fill="#FFFFFF" cx="275.014" cy="147.182" r="3.786"/>
        <circle fill="#FFFFFF" cx="131.982" cy="213.173" r="3.786"/>
        <circle fill="#FFFFFF" cx="22.177" cy="202.045" r="2.009"/>
        <circle fill="#FFFFFF" cx="94.195" cy="161.786" r="3.786"/>
        <circle fill="#FFFFFF" cx="104.473" cy="176.623" r="3.786"/>
        <circle fill="#FFFFFF" cx="-5.332" cy="165.495" r="2.009"/>
        <circle fill="#FFFFFF" cx="66.609" cy="125.237" r="3.786"/>
        <circle fill="#FFFFFF" cx="645.613" cy="182.882" r="3.786"/>
        <circle fill="#FFFFFF" cx="535.809" cy="171.832" r="2.009"/>
        <circle fill="#FFFFFF" cx="607.75" cy="131.495" r="3.786"/>
        <circle fill="#FFFFFF" cx="172.009" cy="213.714" r="2.009"/>
        <circle fill="#FFFFFF" cx="50.459" cy="203.977" r="3.786"/>
        <circle fill="#FFFFFF" cx="203.15" cy="192.309" r="2.009"/>
        <circle fill="#FFFFFF" cx="243.409" cy="253.895" r="2.009"/>
        <circle fill="#FFFFFF" cx="284.132" cy="176.623" r="3.786"/>
        <circle fill="#FFFFFF" cx="121.782" cy="244.159" r="3.786"/>
        <circle fill="#FFFFFF" cx="16.459" cy="245.782" r="3.786"/>
        <circle fill="#FFFFFF" cx="109.264" cy="307.214" r="2.009"/>
        <circle fill="#FFFFFF" cx="43.273" cy="274.759" r="2.009"/>
        <circle fill="#FFFFFF" cx="152.846" cy="221.054" r="3.786"/>
        <circle fill="#FFFFFF" cx="320.296" cy="166.655" r="3.786"/>
        <circle fill="#FFFFFF" cx="251.6" cy="351.336" r="2.009"/>
        <circle fill="#FFFFFF" cx="373.382" cy="344.536" r="3.786"/>
        <circle fill="#FFFFFF" cx="223.627" cy="376.682" r="2.009"/>
        <circle fill="#FFFFFF" cx="175.486" cy="321.045" r="2.009"/>
        <circle fill="#FFFFFF" cx="145.504" cy="403.187" r="3.786"/>
        <circle fill="#FFFFFF" cx="297.345" cy="314.323" r="3.786"/>
        <circle fill="#FFFFFF" cx="401.509" cy="298.559" r="3.786"/>
        <circle fill="#FFFFFF" cx="301.209" cy="250.186" r="2.009"/>
        <circle fill="#FFFFFF" cx="370.986" cy="273.523" r="2.009"/>
        <circle fill="#FFFFFF" cx="269.682" cy="341.446" r="3.786"/>
        <circle fill="#FFFFFF" cx="75.65" cy="330.241" r="3.786"/>
        <circle fill="#FFFFFF" cx="-28.05" cy="311.773" r="3.786"/>
        <circle fill="#FFFFFF" cx="51.464" cy="389.741" r="2.009"/>
        <circle fill="#FFFFFF" cx="-7.187" cy="345.309" r="2.009"/>
        <circle fill="#FFFFFF" cx="110.577" cy="313.396" r="3.786"/>
        <circle fill="#FFFFFF" cx="-18.854" cy="338.123" r="2.009"/>
        <circle fill="#FFFFFF" cx="102.927" cy="331.4" r="3.786"/>
        <circle fill="#FFFFFF" cx="26.891" cy="301.186" r="3.786"/>
        <circle fill="#FFFFFF" cx="-0.85" cy="328.309" r="3.786"/>
        <circle fill="#FFFFFF" cx="111.041" cy="417.945" r="3.786"/>
        <circle fill="#FFFFFF" cx="702.1" cy="402.723" r="3.786"/>
        <circle fill="#FFFFFF" cx="158.177" cy="225.15" r="2.009"/>
        <circle fill="#FFFFFF" cx="187.154" cy="157.536" r="2.009"/>
        <circle fill="#FFFFFF" cx="246.5" cy="264.095" r="3.786"/>
        <circle fill="#FFFFFF" cx="482.877" cy="196.327" r="2.009"/>
        <circle fill="#FFFFFF" cx="511.854" cy="128.714" r="2.009"/>
        <circle fill="#FFFFFF" cx="571.123" cy="235.35" r="3.786"/>
    </g>
</g>
</svg>